<?xml version="1.0" encoding="iso-8859-1"?>
<!-- Uploaded to: SVG Repo, www.svgrepo.com, Generator: SVG Repo Mixer Tools -->
<svg height="800px" width="800px" version="1.1" id="Layer_1" xmlns="http://www.w3.org/2000/svg" xmlns:xlink="http://www.w3.org/1999/xlink" 
	 viewBox="0 0 512 512" xml:space="preserve">
<circle style="fill:#324A5E;" cx="256" cy="256" r="256"/>
<path style="fill:#2B3B4E;" d="M297.388,508.652c97.089-15.784,175.84-86.166,203.726-178.621L387.015,215.933l-11.124,9.631
	L267.592,117.265l-6.997,198.497l-55.661,100.438L297.388,508.652z"/>
<path style="fill:#B97850;" d="M256.733,331.226L256.733,331.226c-81.536-70.449-82.254-152.6-1.605-223.823l0.872-0.771l0,0
	c81.536,70.449,82.254,152.598,1.605,223.823L256.733,331.226z"/>
<path style="fill:#935635;" d="M256,106.632v223.949c0.247,0.214,0.484,0.429,0.733,0.645l0,0l0.872-0.771
	C338.253,259.232,337.536,177.081,256,106.632z"/>
<path style="fill:#66B31B;" d="M387.017,215.933L387.017,215.933c-50.635-21.725-109.292,1.712-131.017,52.346l0,0l0,0
	C306.635,290.004,365.292,266.568,387.017,215.933L387.017,215.933z"/>
<path style="fill:#85CE38;" d="M256,268.279L256,268.279c-50.635,21.725-109.292-1.712-131.017-52.346l0,0l0,0
	C175.618,194.208,234.275,217.645,256,268.279L256,268.279z"/>
<path style="fill:#9DE551;" d="M256.384,286.07L256.384,286.07c-39.172-38.745-39.517-101.907-0.772-141.076l0.002-0.002l0,0
	C294.786,183.736,295.131,246.899,256.384,286.07L256.384,286.07z"/>
<path style="fill:#79D720;" d="M256,145.392V285.67c0.131,0.131,0.252,0.269,0.384,0.4l0,0l0.002-0.002
	C295,247.031,294.778,184.17,256,145.392z"/>
<path style="fill:#FFD15D;" d="M333.246,280.776H178.75l-20.801,30.349c-11.466,16.729-8.454,38.141,7.304,51.938l47.364,41.463
	h86.764l47.364-41.463c15.758-13.795,18.77-35.209,7.304-51.938L333.246,280.776z"/>
<g>
	<path style="fill:#F9B54C;" d="M354.049,311.127l-20.801-30.349H256v123.751h43.382l47.364-41.463
		C362.503,349.268,365.515,327.856,354.049,311.127z"/>
	<path style="fill:#F9B54C;" d="M300.197,419.159h-88.397c-5.23,0-9.471-4.241-9.471-9.471l0,0c0-5.23,4.241-9.471,9.471-9.471
		h88.397c5.23,0,9.471,4.241,9.471,9.471l0,0C309.669,414.918,305.428,419.159,300.197,419.159z"/>
</g>
<path style="fill:#F4A200;" d="M300.197,400.217H256v18.942h44.197c5.23,0,9.471-4.241,9.471-9.471
	C309.669,404.458,305.428,400.217,300.197,400.217z"/>
<path style="fill:#F9B54C;" d="M335.32,289.721H176.68c-7.192,0-13.022-5.83-13.022-13.022l0,0c0-7.192,5.83-13.022,13.022-13.022
	H335.32c7.192,0,13.022,5.83,13.022,13.022l0,0C348.343,283.891,342.512,289.721,335.32,289.721z"/>
<path style="fill:#F4A200;" d="M335.32,263.675H256v26.045h79.32c7.192,0,13.022-5.83,13.022-13.022S342.512,263.675,335.32,263.675
	z"/>
<path style="fill:#F1543F;" d="M262.284,338.711v-18.856h12.571c6.942,0,12.571-5.629,12.571-12.571h-37.71v31.425h-18.856v-12.571
	c0-6.942-5.629-12.571-12.571-12.571v37.71h31.425v18.856h-12.571c-6.942,0-12.571,5.629-12.571,12.571h37.71V351.28h18.856v12.571
	c0,6.942,5.629,12.571,12.571,12.571v-37.71H262.284z"/>
<path style="fill:#C1321F;" d="M262.284,338.711v-18.856h12.571c6.942,0,12.571-5.629,12.571-12.571H256v75.423h6.285v-31.425
	h18.856v12.571c0,6.942,5.629,12.571,12.571,12.571v-37.71h-31.429V338.711z"/>
<circle style="fill:#FC6F58;" cx="240.537" cy="329.076" r="3.865"/>
<circle style="fill:#F1543F;" cx="271.463" cy="329.076" r="3.865"/>
<circle style="fill:#FC6F58;" cx="240.537" cy="360.917" r="3.865"/>
<circle style="fill:#F1543F;" cx="271.463" cy="360.917" r="3.865"/>
</svg>